<svg width="100" height="100" viewBox="0 0 100 100" fill="none" xmlns="http://www.w3.org/2000/svg">
<g clip-path="url(#clip0_302_141)">
<path d="M83.1492 64.7818C83.0999 64.8154 83.0633 64.8621 83.0394 64.922C83.0354 64.9318 83.029 64.9404 83.021 64.9469C83.013 64.9533 83.0036 64.9574 82.9938 64.9586C82.578 65.0097 82.3004 65.1181 81.9351 65.3819C81.2182 65.899 80.4443 66.27 79.6133 66.4952C79.6033 66.4979 79.5941 66.5027 79.5862 66.5091C79.5782 66.5156 79.5717 66.5237 79.5671 66.5328C79.5624 66.5419 79.5598 66.5519 79.5593 66.5621C79.5588 66.5722 79.5605 66.5824 79.5642 66.5919C79.8455 67.3193 80.009 68.052 80.0545 68.7901C80.0554 68.8023 80.0591 68.8142 80.0655 68.8246C80.0719 68.8351 80.0807 68.8439 80.0913 68.8502C80.1018 68.8565 80.1137 68.8602 80.1259 68.8609C80.1382 68.8616 80.1504 68.8593 80.1616 68.8543C80.4544 68.721 80.6954 68.5863 80.933 68.346C81.8218 67.4475 82.6139 66.7963 83.8114 66.3446C83.9924 66.2765 84.1354 66.1996 84.2403 66.114C84.3982 65.9851 84.543 65.8409 84.6747 65.6816C85.3082 66.0412 85.9408 66.4116 86.5725 66.7928C87.8336 67.5539 88.4344 69.0712 87.8184 70.4475C87.6977 70.7159 87.532 71.021 87.3211 71.3626C83.1471 78.1223 77.259 84.0207 70.3266 87.9641C64.3474 91.3651 57.9224 93.3585 51.0518 93.9441C48.9606 94.1223 46.866 94.172 44.7679 94.0933C44.7424 94.0922 44.717 94.0985 44.6949 94.1113C44.6728 94.1242 44.6547 94.1431 44.6429 94.1658C44.1015 95.2127 43.3909 96.181 42.5249 96.9862C36.9869 102.135 27.9468 99.605 25.9585 92.2673C25.6478 91.1204 25.5412 89.9802 25.6388 88.8467C26.0366 84.2127 29.4862 80.5076 34.049 79.7445C34.2603 79.7093 34.4095 79.6699 34.6519 79.6513C35.5822 79.5808 36.4572 79.5511 37.3059 79.7196C37.5628 79.77 37.8239 79.8018 38.0663 79.8688C41.7058 80.875 44.3481 83.4247 45.3743 87.0497C45.4337 87.2611 45.482 87.5615 45.5642 87.8129C45.5939 87.9033 45.5822 88.0442 45.6492 88.1416C45.6552 88.15 45.6633 88.1569 45.673 88.1618C45.6827 88.1667 45.6937 88.1695 45.7051 88.1699C46.6503 88.1962 47.5948 88.1998 48.5387 88.181C49.2396 88.1671 50.0242 88.0822 50.77 88.0421C50.9477 88.0329 51.1832 88.0053 51.4765 87.9593C51.7914 87.9096 52.1153 87.9013 52.4233 87.8495C52.7019 87.8025 52.9823 87.7687 53.2645 87.748C53.4061 87.7376 53.5276 87.6665 53.6609 87.6513C53.9712 87.6167 54.3566 87.5546 54.817 87.4648C59.8702 86.4793 64.8032 84.5718 69.1333 81.7728C73.793 78.7613 77.7336 74.9627 80.9551 70.3771C80.9589 70.3716 80.9615 70.3654 80.9627 70.3589C80.964 70.3524 80.9639 70.3457 80.9625 70.3393C80.9611 70.3328 80.9584 70.3267 80.9545 70.3213C80.9506 70.3159 80.9456 70.3114 80.9399 70.308L70.7396 64.3363C70.7109 64.3197 70.6771 64.3142 70.6446 64.3209C70.6121 64.3277 70.5832 64.3462 70.5635 64.3729C64.7286 72.2908 55.3073 76.7707 45.4765 76.2397C38.7894 75.8785 32.4537 73.1955 27.482 68.7279C25.9143 67.3198 24.5103 65.6851 23.2907 63.9669C23.2824 63.9552 23.2701 63.9469 23.2562 63.9437C23.2423 63.9405 23.2278 63.9426 23.2155 63.9496C18.9015 66.3686 14.5863 68.7903 10.27 71.2148C9.25666 71.7839 8.27692 71.8235 7.33079 71.3336C6.39225 70.8481 5.95302 69.9531 5.48963 69.056C3.4109 65.0345 1.90261 60.7721 0.997222 56.3529C0.997222 56.3529 0.975353 56.2698 0.931614 56.1091C0.89225 55.9641 0.906062 55.8122 0.873603 55.6782C0.778299 55.2859 0.736172 54.933 0.651227 54.4897C0.603575 54.2452 0.598051 53.9917 0.549017 53.7535C0.374984 52.9116 0.352194 52.0249 0.249294 51.1706C0.134653 50.2148 0.21062 49.2258 0.0490175 48.2852C-0.0290212 47.8274 0.0131059 47.2707 0.0172495 46.8025C0.0195516 46.4931 0.0368168 46.1421 0.0690451 45.7493C0.147084 44.8004 0.16504 43.7694 0.247913 42.9026C0.340914 41.9261 0.447038 41.0401 0.566283 40.2445C0.64225 39.7362 0.743769 39.2362 0.801089 38.7307C0.807305 38.6727 0.862553 38.5967 0.868769 38.5131C0.887645 38.2415 0.936218 37.9758 1.01449 37.7162C1.04418 37.616 1.02899 37.4641 1.05247 37.3964C1.15054 37.1126 1.18023 36.8612 1.23479 36.6423C1.42333 35.8874 1.61393 35.085 1.81352 34.3826C3.09437 29.8739 4.99009 25.6835 7.50068 21.8115C7.65675 21.5705 7.55938 21.5062 7.43783 21.3122C6.90054 20.4531 6.50551 19.5329 6.25275 18.5518C6.18714 18.297 6.10634 18.0905 6.07802 17.8205C6.04418 17.4993 5.95717 17.1823 5.94888 16.8695C5.94013 16.5348 5.92448 16.2005 5.90192 15.8667C5.89708 15.799 5.94474 15.7155 5.94128 15.634C5.9201 15.2035 5.94243 14.838 6.00827 14.5373C6.07388 14.2383 6.09667 13.9455 6.17195 13.692C6.24331 13.4512 6.31559 13.2111 6.3888 12.9717C7.39708 9.67819 10.1402 7.13883 13.4627 6.28178C13.4659 6.28086 13.5389 6.26728 13.6816 6.24104C13.9157 6.19822 14.1202 6.11051 14.3909 6.09256C14.7065 6.07184 15.0097 6.00485 15.3639 5.9938C18.294 5.90034 20.7721 6.81355 22.7983 8.73344C24.5539 10.3971 25.7231 12.7521 25.8936 15.1775C25.9026 15.297 25.886 15.576 25.9199 15.7756C25.9351 15.8676 25.9383 15.9521 25.9295 16.029C25.884 16.4171 25.9054 16.8384 25.8591 17.1865C25.5476 19.5276 24.471 21.712 22.73 23.3087C19.9213 25.884 15.9399 26.7113 12.3577 25.3239C12.3275 25.3122 12.2942 25.3114 12.2636 25.3216C12.2329 25.3319 12.2069 25.3524 12.1899 25.3799C7.93645 32.2397 5.82733 40.0373 5.95924 48.0946C5.96062 48.1591 5.97351 48.2859 5.99791 48.4752C6.02001 48.6437 6.00551 48.8522 6.01173 48.989C6.08079 50.4828 6.24032 51.6844 6.37982 52.9296C6.40261 53.1381 6.49308 53.4344 6.50827 53.6899C6.52554 53.9834 6.61808 54.2507 6.65882 54.5387C6.70648 54.8778 6.79073 55.163 6.85979 55.4821C7.5306 58.5903 8.52807 61.5933 9.8522 64.491C9.88811 64.5702 9.94428 64.5889 10.0207 64.547L20.1892 58.895C20.3098 58.8278 20.343 58.7309 20.2887 58.6043C19.3016 56.3096 18.6167 53.9425 18.2341 51.5028C18.2092 51.3412 18.1858 50.9683 18.1229 50.7044C18.0276 50.2991 18.0456 49.8391 18 49.4213C17.9468 48.9344 17.9406 48.5387 17.9061 47.98C17.8766 47.497 17.8876 46.6591 17.9392 45.4662C17.9461 45.2984 17.9855 45.1354 17.9972 44.9593C18.0262 44.5283 18.0566 44.0974 18.0884 43.6665C18.0987 43.5276 18.165 43.3944 18.1726 43.259C18.198 42.8258 18.2277 42.5622 18.2617 42.4682C18.3577 42.2031 18.3612 41.8923 18.4088 41.6692C18.6178 40.7014 18.7555 40.0946 18.8218 39.8488C20.2748 34.4434 23.2313 29.3253 27.4143 25.5926C31.9038 21.5866 37.1584 19.1473 43.1782 18.2749C43.4599 18.2344 43.7175 18.2058 43.951 18.1892C44.0812 18.1805 44.1464 18.1107 44.1464 17.98C44.1473 13.1227 44.1473 8.26774 44.1464 3.41507C44.1464 2.97814 44.177 2.63814 44.2382 2.39504C44.5407 1.1996 45.6291 0.194765 46.944 0.179572C47.9731 0.168061 48.9054 0.194765 49.741 0.259682C50.0453 0.283623 50.2682 0.295364 50.4095 0.294903C50.4302 0.294903 50.4519 0.299968 50.4744 0.310096C50.5863 0.360511 50.6878 0.320456 50.7797 0.328052C51.4827 0.385603 52.4256 0.489194 53.6084 0.638826C53.9114 0.677039 54.1595 0.718476 54.3529 0.763135C54.538 0.805953 54.7168 0.775566 54.9074 0.824599C55.2394 0.910695 55.4394 0.952592 55.5076 0.95029C55.6899 0.944074 55.8446 1.02764 55.9986 1.05043C56.5877 1.13883 57.1519 1.31424 57.7341 1.40747C57.8591 1.4275 57.9661 1.49242 58.0918 1.50416C58.2534 1.51889 58.383 1.54582 58.4806 1.58496C58.7099 1.6775 58.9081 1.67336 59.1146 1.75209C59.25 1.80411 59.3909 1.83726 59.5373 1.85153C59.5566 1.85337 59.5778 1.86005 59.6008 1.87156C59.6519 1.8978 59.7392 1.92842 59.8626 1.96341C60.538 2.15586 61.4632 2.45098 62.6381 2.84877C62.791 2.90034 62.9031 2.94592 62.9744 2.98551C62.9942 2.99656 63.0159 3.00232 63.0394 3.00278C63.1397 3.00554 63.2283 3.03869 63.3052 3.10222C63.3229 3.11669 63.3439 3.12601 63.366 3.12916C63.4779 3.14435 63.7873 3.30595 63.8322 3.29974C63.858 3.29651 63.8798 3.29859 63.8978 3.30595C74.6595 7.54145 83.5476 15.3819 88.8294 25.6948C88.8343 25.7043 88.8413 25.7125 88.85 25.7187C88.8587 25.7248 88.8687 25.7287 88.8791 25.73C88.9988 25.7466 89.1547 25.7401 89.3467 25.7107C89.5396 25.6816 89.8349 25.6886 90.2327 25.7314C90.3487 25.7445 90.5407 25.7252 90.6968 25.7859C90.7189 25.7947 90.741 25.7979 90.7631 25.7956C90.9574 25.7786 91.1473 25.7956 91.3329 25.8467C91.5387 25.9033 91.7224 25.9213 91.9157 25.9689C95.7203 26.902 98.6063 29.9075 99.4081 33.7362C100.611 39.4807 96.5242 45.0242 90.7113 45.6982C87.895 46.0249 84.8322 45.0159 82.7921 43.0718C79.7583 40.1803 78.7155 35.8771 80.3529 31.9758C80.8315 30.8343 81.482 29.7003 82.4068 28.7424C82.6754 28.4641 83.02 28.172 83.3294 27.8895C83.3453 27.8749 83.3558 27.8555 83.3595 27.8342C83.3631 27.813 83.3596 27.7911 83.3494 27.7721C81.7482 24.7519 79.7884 21.9742 77.4703 19.4392C72.4473 13.9475 66.383 10.0748 59.2776 7.82115C59.2189 7.8025 59.1533 7.81217 59.0939 7.79214C58.6114 7.6287 58.1238 7.48275 57.6312 7.3543C55.1768 6.71341 52.669 6.29191 50.1077 6.08979C50.0939 6.08874 50.0801 6.09054 50.067 6.09507C50.054 6.09959 50.042 6.10675 50.0319 6.11609C50.0218 6.12543 50.0137 6.13675 50.0082 6.14934C50.0028 6.16193 49.9999 6.17552 50 6.18924V18.0214C50 18.114 50.046 18.1653 50.1381 18.1754C56.732 18.9054 63.1416 21.8902 67.7831 26.6326C72.1029 31.0463 74.9309 36.6457 75.8909 42.7604C76.0131 43.5394 76.0746 44.2583 76.1595 45.114C76.212 45.6407 76.2281 46.4867 76.2079 47.6519C76.1379 51.6556 75.2781 55.4496 73.6284 59.0339C73.593 59.1107 73.6119 59.1708 73.6851 59.2141L83.1492 64.7818ZM20.069 15.971C20.069 15.427 19.9619 14.8884 19.7537 14.3858C19.5456 13.8833 19.2404 13.4266 18.8558 13.042C18.4712 12.6573 18.0145 12.3522 17.512 12.1441C17.0094 11.9359 16.4707 11.8287 15.9268 11.8287C14.8282 11.8287 13.7746 12.2652 12.9978 13.042C12.2209 13.8188 11.7845 14.8724 11.7845 15.971C11.7845 16.515 11.8917 17.0536 12.0998 17.5562C12.308 18.0587 12.6131 18.5154 12.9978 18.9C13.7746 19.6769 14.8282 20.1133 15.9268 20.1133C16.4707 20.1133 17.0094 20.0061 17.512 19.798C18.0145 19.5898 18.4712 19.2847 18.8558 18.9C19.2404 18.5154 19.5456 18.0587 19.7537 17.5562C19.9619 17.0536 20.069 16.515 20.069 15.971ZM24.6747 53.2093C26.9434 61.4682 33.2907 67.6188 41.605 69.6699C42.1492 69.8039 42.569 69.8474 42.9523 69.951C43.192 70.0159 43.4192 70.0124 43.6533 70.0594C44.029 70.1347 44.3819 70.1561 44.7507 70.2017C44.8847 70.2183 45.0221 70.1975 45.1706 70.2272C45.3243 70.2576 45.4263 70.274 45.4765 70.2763C47.7728 70.3826 49.8439 70.2783 52.1264 69.7597C62.8798 67.3142 70.2182 58.0546 70.2873 47.0311C70.29 46.5923 70.2744 46.1324 70.2403 45.6513C69.8501 40.1119 67.6671 35.0926 63.9164 31.0698C60.3632 27.2597 55.1443 24.6637 49.9675 24.0698C45.0615 23.5069 40.1119 24.3681 35.7735 26.8018C28.5193 30.8723 24.1326 38.2044 23.8667 46.5124C23.8441 47.2146 23.8556 47.8552 23.9012 48.4344C23.9496 49.0477 23.9731 49.6188 24.0318 50C24.093 50.402 24.134 50.689 24.1547 50.8612C24.1768 51.0456 24.2452 51.2231 24.2735 51.4123C24.3632 52.0118 24.5186 52.6409 24.6747 53.2093ZM93.7376 35.7203C93.7376 34.6217 93.3012 33.5681 92.5243 32.7913C91.7475 32.0145 90.6939 31.5781 89.5953 31.5781C88.4967 31.5781 87.4431 32.0145 86.6663 32.7913C85.8894 33.5681 85.453 34.6217 85.453 35.7203C85.453 36.8189 85.8894 37.8725 86.6663 38.6493C87.4431 39.4262 88.4967 39.8626 89.5953 39.8626C90.6939 39.8626 91.7475 39.4262 92.5243 38.6493C93.3012 37.8725 93.7376 36.8189 93.7376 35.7203ZM39.7949 89.6416C39.7949 88.549 39.3609 87.5012 38.5883 86.7287C37.8158 85.9561 36.768 85.5221 35.6754 85.5221C34.5828 85.5221 33.535 85.9561 32.7625 86.7287C31.9899 87.5012 31.5559 88.549 31.5559 89.6416C31.5559 90.1826 31.6625 90.7183 31.8695 91.2181C32.0765 91.7178 32.38 92.172 32.7625 92.5545C33.145 92.937 33.5991 93.2405 34.0989 93.4475C34.5987 93.6545 35.1344 93.7611 35.6754 93.7611C36.2164 93.7611 36.7521 93.6545 37.2519 93.4475C37.7516 93.2405 38.2058 92.937 38.5883 92.5545C38.9708 92.172 39.2743 91.7178 39.4813 91.2181C39.6883 90.7183 39.7949 90.1826 39.7949 89.6416Z" fill="black"/>
<path d="M44.8667 58.8342C40.145 57.9095 36.2113 54.0594 35.3598 49.2894C35.3239 49.0891 35.2562 48.8909 35.2458 48.6913C35.2224 48.2327 35.134 47.7521 35.1346 47.3246C35.1402 44.0628 36.2983 41.1885 38.5711 38.8474C43.0891 34.1947 50.3798 33.9565 55.1222 38.4275C57.4116 40.5863 58.819 43.3867 58.962 46.5552C58.9717 46.7755 59.0311 47.0891 59.0062 47.3632C58.9475 48.0152 58.8929 48.7003 58.7721 49.3094C57.52 55.6388 51.3308 60.1008 44.8667 58.8342ZM53.0324 47.1098C53.0324 45.5277 52.4039 44.0103 51.2852 42.8916C50.1664 41.7728 48.6491 41.1443 47.067 41.1443C45.4848 41.1443 43.9675 41.7728 42.8487 42.8916C41.73 44.0103 41.1015 45.5277 41.1015 47.1098C41.1015 48.6919 41.73 50.2093 42.8487 51.328C43.9675 52.4468 45.4848 53.0753 47.067 53.0753C48.6491 53.0753 50.1664 52.4468 51.2852 51.328C52.4039 50.2093 53.0324 48.6919 53.0324 47.1098Z" fill="black"/>
<path d="M83.1491 64.7818L84.6747 65.6816C84.543 65.8409 84.3982 65.985 84.2403 66.114C84.1353 66.1996 83.9924 66.2765 83.8114 66.3446C82.6139 66.7963 81.8218 67.4475 80.933 68.346C80.6954 68.5863 80.4544 68.721 80.1616 68.8543C80.1504 68.8593 80.1382 68.8616 80.1259 68.8609C80.1137 68.8602 80.1018 68.8565 80.0912 68.8502C80.0807 68.8439 80.0719 68.8351 80.0655 68.8246C80.0591 68.8142 80.0553 68.8023 80.0545 68.7901C80.0089 68.052 79.8455 67.3193 79.5642 66.5919C79.5605 66.5824 79.5588 66.5722 79.5593 66.5621C79.5598 66.5519 79.5624 66.5419 79.5671 66.5328C79.5717 66.5237 79.5782 66.5156 79.5861 66.5091C79.5941 66.5026 79.6033 66.4979 79.6132 66.4952C80.4443 66.27 81.2182 65.8989 81.9351 65.3819C82.3004 65.1181 82.578 65.0097 82.9938 64.9586C83.0036 64.9573 83.013 64.9533 83.021 64.9469C83.029 64.9404 83.0353 64.9318 83.0393 64.922C83.0633 64.8621 83.0999 64.8154 83.1491 64.7818Z" fill="black"/>
</g>
<defs>
<clipPath id="clip0_302_141">
<rect width="100" height="100" fill="white"/>
</clipPath>
</defs>
</svg>
