<svg width="325" height="75" viewBox="0 0 325 75" fill="none" xmlns="http://www.w3.org/2000/svg">
<g clip-path="url(#clip0_314_193)">
<path d="M62.3619 48.5863C62.3249 48.6115 62.2975 48.6466 62.2795 48.6915C62.2765 48.6989 62.2718 48.7053 62.2658 48.7101C62.2598 48.715 62.2527 48.718 62.2453 48.7189C61.9335 48.7572 61.7253 48.8385 61.4513 49.0364C60.9137 49.4242 60.3332 49.7025 59.71 49.8714C59.7025 49.8734 59.6956 49.877 59.6896 49.8818C59.6837 49.8867 59.6788 49.8927 59.6753 49.8996C59.6719 49.9064 59.6699 49.9139 59.6695 49.9215C59.6691 49.9291 59.6704 49.9368 59.6732 49.9439C59.8842 50.4894 60.0067 51.039 60.0409 51.5925C60.0415 51.6017 60.0444 51.6106 60.0491 51.6185C60.0539 51.6263 60.0606 51.6329 60.0685 51.6376C60.0764 51.6423 60.0853 51.6451 60.0945 51.6456C60.1036 51.6462 60.1128 51.6445 60.1212 51.6407C60.3408 51.5407 60.5216 51.4397 60.6998 51.2595C61.3664 50.5856 61.9605 50.0972 62.8586 49.7584C62.9943 49.7073 63.1015 49.6497 63.1803 49.5854C63.2987 49.4888 63.4073 49.3807 63.506 49.2612" fill="#424242"/>
<path d="M62.3619 48.5863C62.3249 48.6115 62.2975 48.6466 62.2795 48.6915C62.2765 48.6989 62.2718 48.7053 62.2658 48.7101C62.2598 48.715 62.2527 48.718 62.2453 48.7189C61.9335 48.7572 61.7253 48.8385 61.4513 49.0364C60.9137 49.4242 60.3332 49.7025 59.71 49.8714C59.7025 49.8734 59.6956 49.877 59.6896 49.8818C59.6837 49.8867 59.6788 49.8927 59.6753 49.8996C59.6719 49.9064 59.6699 49.9139 59.6695 49.9215C59.6691 49.9291 59.6704 49.9368 59.6732 49.9439C59.8842 50.4894 60.0067 51.039 60.0409 51.5925C60.0415 51.6017 60.0444 51.6106 60.0491 51.6185C60.0539 51.6263 60.0606 51.6329 60.0685 51.6376C60.0764 51.6423 60.0853 51.6451 60.0945 51.6456C60.1036 51.6462 60.1128 51.6445 60.1212 51.6407C60.3408 51.5407 60.5216 51.4397 60.6998 51.2595C61.3664 50.5856 61.9605 50.0972 62.8586 49.7584C62.9943 49.7073 63.1015 49.6497 63.1803 49.5854C63.2987 49.4888 63.4073 49.3807 63.506 49.2612" stroke="#7E7F7B" stroke-width="2"/>
<path d="M62.3619 48.5863C62.3249 48.6115 62.2975 48.6466 62.2795 48.6914C62.2765 48.6988 62.2718 48.7053 62.2658 48.7101C62.2597 48.7149 62.2527 48.718 62.2453 48.7189C61.9335 48.7572 61.7253 48.8385 61.4513 49.0364C60.9137 49.4242 60.3332 49.7025 59.7099 49.8713C59.7025 49.8734 59.6956 49.8769 59.6896 49.8818C59.6837 49.8867 59.6788 49.8927 59.6753 49.8996C59.6718 49.9064 59.6699 49.9139 59.6695 49.9215C59.6691 49.9291 59.6704 49.9368 59.6732 49.9439C59.8841 50.4894 60.0067 51.039 60.0409 51.5925C60.0415 51.6017 60.0443 51.6106 60.0491 51.6184C60.0539 51.6263 60.0606 51.6329 60.0685 51.6376C60.0763 51.6423 60.0853 51.6451 60.0944 51.6456C60.1036 51.6462 60.1128 51.6445 60.1212 51.6407C60.3408 51.5407 60.5216 51.4397 60.6998 51.2595C61.3664 50.5856 61.9605 50.0972 62.8586 49.7584C62.9943 49.7073 63.1015 49.6497 63.1802 49.5854C63.2987 49.4887 63.4073 49.3807 63.506 49.2612C63.9812 49.5309 64.4556 49.8087 64.9294 50.0946C65.8752 50.6654 66.3258 51.8033 65.8638 52.8356C65.7733 53.0369 65.649 53.2657 65.4908 53.5219C62.3603 58.5916 57.9442 63.0155 52.745 65.973C48.2605 68.5238 43.4418 70.0188 38.2888 70.458C36.7205 70.5917 35.1495 70.6289 33.576 70.5699C33.5568 70.5691 33.5378 70.5738 33.5212 70.5835C33.5046 70.5931 33.4911 70.6072 33.4822 70.6243C33.0761 71.4095 32.5432 72.1357 31.8936 72.7396C27.7401 76.6015 20.9601 74.7037 19.4689 69.2004C19.2358 68.3403 19.1559 67.4851 19.2291 66.635C19.5274 63.1595 22.1146 60.3807 25.5368 59.8083C25.6953 59.7819 25.8071 59.7524 25.9889 59.7384C26.6866 59.6856 27.3429 59.6633 27.9794 59.7897C28.1721 59.8275 28.3679 59.8513 28.5497 59.9016C31.2793 60.6562 33.261 62.5685 34.0307 65.2873C34.0753 65.4458 34.1115 65.6711 34.1732 65.8596C34.1954 65.9275 34.1866 66.0331 34.2369 66.1062C34.2414 66.1124 34.2475 66.1176 34.2548 66.1213C34.262 66.125 34.2703 66.1271 34.2788 66.1274C34.9877 66.1471 35.6961 66.1498 36.404 66.1357C36.9297 66.1253 37.5181 66.0616 38.0775 66.0316C38.2108 66.0247 38.3874 66.0039 38.6074 65.9694C38.8436 65.9321 39.0865 65.9259 39.3175 65.8871C39.5264 65.8518 39.7367 65.8265 39.9484 65.8109C40.0546 65.8031 40.1457 65.7498 40.2457 65.7384C40.4784 65.7125 40.7674 65.6659 41.1127 65.5986C44.9026 64.8594 48.6024 63.4288 51.85 61.3296C55.3448 59.0709 58.3002 56.222 60.7163 52.7828C60.7192 52.7787 60.7211 52.774 60.7221 52.7692C60.723 52.7643 60.723 52.7593 60.7219 52.7544C60.7208 52.7495 60.7188 52.745 60.7158 52.7409C60.7129 52.7369 60.7092 52.7335 60.7049 52.731L53.0547 48.2522C53.0332 48.2397 53.0078 48.2356 52.9834 48.2407C52.959 48.2457 52.9374 48.2596 52.9226 48.2797C48.5464 54.218 41.4805 57.578 34.1074 57.1797C29.092 56.9088 24.3403 54.8966 20.6115 51.5459C19.4358 50.4898 18.3828 49.2638 17.468 47.9751C17.4618 47.9663 17.4526 47.9601 17.4422 47.9578C17.4318 47.9554 17.4209 47.9569 17.4116 47.9622C14.1761 49.7764 10.9397 51.5927 7.70251 53.4111C6.9425 53.8378 6.20769 53.8675 5.49809 53.5001C4.79419 53.136 4.46477 52.4647 4.11722 51.7919C2.55817 48.7759 1.42696 45.579 0.747916 42.2646C0.747916 42.2633 0.731515 42.2023 0.698711 42.0818C0.669187 41.973 0.679546 41.8591 0.655202 41.7586C0.583724 41.4644 0.552129 41.1997 0.488421 40.8672C0.452682 40.6838 0.448538 40.4938 0.411763 40.3151C0.281238 39.6837 0.264146 39.0186 0.18697 38.3779C0.10099 37.6611 0.157965 36.9193 0.0367631 36.2139C-0.0217659 35.8705 0.00982941 35.453 0.0129371 35.1018C0.0146637 34.8698 0.0276126 34.6065 0.0517838 34.312C0.110313 33.6003 0.12378 32.827 0.185934 32.1769C0.255686 31.4445 0.335278 30.78 0.424712 30.1833C0.481687 29.8021 0.557827 29.4271 0.600817 29.048C0.605479 29.0045 0.646915 28.9475 0.651577 28.8848C0.665734 28.6811 0.702164 28.4818 0.760865 28.2871C0.783137 28.212 0.771742 28.098 0.789353 28.0473C0.862903 27.8344 0.885175 27.6459 0.926093 27.4817C1.0675 26.9155 1.21045 26.3137 1.36014 25.7869C2.32078 22.4054 3.74256 19.2626 5.62551 16.3586C5.74256 16.1778 5.66953 16.1296 5.57837 15.9841C5.1754 15.3398 4.87913 14.6497 4.68956 13.9138C4.64035 13.7227 4.57975 13.5678 4.55852 13.3653C4.53314 13.1245 4.46788 12.8867 4.46166 12.6521C4.4551 12.401 4.44336 12.1504 4.42644 11.9C4.42281 11.8492 4.45855 11.7866 4.45596 11.7255C4.44008 11.4026 4.45683 11.1284 4.5062 10.9029C4.55541 10.6787 4.5725 10.4591 4.62896 10.269C4.68248 10.0884 4.73669 9.90829 4.7916 9.72874C5.54781 7.25861 7.60513 5.35408 10.097 4.7113C10.0994 4.71061 10.1542 4.70042 10.2612 4.68074C10.4368 4.64863 10.5901 4.58285 10.7932 4.56938C11.0299 4.55384 11.2572 4.5036 11.523 4.49531C13.7205 4.42521 15.5791 5.11012 17.0987 6.55004C18.4154 7.7978 19.2923 9.56403 19.4202 11.3831C19.427 11.4727 19.4145 11.6819 19.4399 11.8316C19.4513 11.9007 19.4537 11.9641 19.4472 12.0217C19.413 12.3128 19.429 12.6288 19.3943 12.8898C19.1607 14.6457 18.3532 16.284 17.0475 17.4815C14.9409 19.413 11.9549 20.0335 9.26829 18.9929C9.24564 18.9841 9.22066 18.9835 9.19767 18.9912C9.17469 18.9989 9.15514 19.0143 9.14243 19.0348C5.95234 24.1797 4.3705 30.0279 4.46943 36.0709C4.47047 36.1193 4.48013 36.2144 4.49843 36.3563C4.51501 36.4827 4.50413 36.6391 4.50879 36.7417C4.56059 37.862 4.68024 38.7633 4.78486 39.6971C4.80196 39.8536 4.86981 40.0758 4.8812 40.2674C4.89415 40.4875 4.96356 40.688 4.99412 40.904C5.02986 41.1583 5.09305 41.3722 5.14484 41.6115C5.64795 43.9426 6.39605 46.1949 7.38915 48.3682C7.41608 48.4276 7.45821 48.4416 7.51553 48.4102L15.1419 44.1712C15.2324 44.1208 15.2572 44.0481 15.2165 43.9532C14.4762 42.2322 13.9625 40.4568 13.6756 38.627C13.6569 38.5058 13.6393 38.2261 13.5922 38.0283C13.5207 37.7242 13.5342 37.3793 13.5 37.0659C13.4601 36.7008 13.4554 36.404 13.4295 35.985C13.4074 35.6227 13.4157 34.9943 13.4544 34.0996C13.4596 33.9737 13.4891 33.8515 13.4979 33.7194C13.5197 33.3962 13.5425 33.073 13.5663 32.7498C13.5741 32.6457 13.6238 32.5457 13.6295 32.4442C13.6485 32.1193 13.6707 31.9216 13.6963 31.8511C13.7683 31.6523 13.7709 31.4192 13.8066 31.2519C13.9634 30.526 14.0666 30.0709 14.1164 29.8865C15.2061 25.8325 17.4235 21.9939 20.5608 19.1944C23.9278 16.1899 27.8688 14.3605 32.3836 13.7061C32.5949 13.6757 32.7881 13.6543 32.9632 13.6419C33.0609 13.6353 33.1098 13.583 33.1098 13.485C33.1105 9.842 33.1105 6.20077 33.1098 2.56126C33.1098 2.23357 33.1328 1.97856 33.1787 1.79624C33.4056 0.899661 34.2218 0.146036 35.208 0.134641C35.9798 0.126008 36.679 0.146036 37.3058 0.194723C37.534 0.212679 37.7011 0.221484 37.8071 0.221139C37.8227 0.221139 37.8389 0.224938 37.8558 0.232534C37.9397 0.270345 38.0159 0.240304 38.0848 0.246001C38.612 0.289164 39.3192 0.366857 40.2063 0.479081C40.4335 0.507741 40.6196 0.538819 40.7647 0.572313C40.9035 0.604426 41.0376 0.581636 41.1806 0.618411C41.4296 0.682983 41.5796 0.714406 41.6307 0.712679C41.7674 0.708018 41.8834 0.77069 41.999 0.787783C42.4408 0.854081 42.8639 0.985642 43.3006 1.05557C43.3943 1.07059 43.4746 1.11927 43.5689 1.12808C43.6901 1.13913 43.7873 1.15933 43.8605 1.18868C44.0324 1.25809 44.1811 1.25498 44.336 1.31403C44.4375 1.35305 44.5432 1.37791 44.653 1.38861C44.6675 1.38999 44.6833 1.395 44.7006 1.40363C44.7389 1.42331 44.8044 1.44628 44.8969 1.47252C45.4035 1.61686 46.0974 1.8382 46.9786 2.13654C47.0932 2.17521 47.1773 2.2094 47.2308 2.23909C47.2457 2.24738 47.2619 2.2517 47.2795 2.25204C47.3548 2.25412 47.4213 2.27898 47.4789 2.32663C47.4921 2.33748 47.5079 2.34447 47.5245 2.34683C47.6084 2.35822 47.8405 2.47943 47.8741 2.47476C47.8935 2.47235 47.9099 2.4739 47.9233 2.47943C55.9946 5.65605 62.6607 11.5364 66.6221 19.271C66.6257 19.2782 66.631 19.2844 66.6375 19.289C66.644 19.2936 66.6515 19.2965 66.6594 19.2975C66.7491 19.3099 66.866 19.305 67.01 19.2829C67.1547 19.2612 67.3762 19.2664 67.6745 19.2985C67.7616 19.3083 67.9056 19.2938 68.0226 19.3394C68.0392 19.346 68.0558 19.3484 68.0723 19.3467C68.2181 19.3339 68.3605 19.3467 68.4996 19.385C68.654 19.4275 68.7918 19.4409 68.9368 19.4767C71.7902 20.1764 73.9548 22.4306 74.5561 25.3021C75.4584 29.6105 72.3931 33.7681 68.0335 34.2736C65.9213 34.5186 63.6241 33.7619 62.0941 32.3038C59.8187 30.1352 59.0366 26.9078 60.2647 23.9818C60.6236 23.1257 61.1115 22.2752 61.8051 21.5568C62.0066 21.348 62.265 21.1289 62.4971 20.9171C62.509 20.9062 62.5169 20.8916 62.5196 20.8756C62.5223 20.8597 62.5197 20.8433 62.5121 20.829C61.3111 18.5639 59.8413 16.4806 58.1027 14.5794C54.3355 10.4606 49.7873 7.55608 44.4582 5.86582C44.4142 5.85184 44.365 5.85909 44.3204 5.84407C43.9586 5.72148 43.5929 5.61202 43.2234 5.51568C41.3826 5.03502 39.5017 4.71889 37.5808 4.56731C37.5705 4.56652 37.5601 4.56787 37.5503 4.57126C37.5405 4.57466 37.5315 4.58002 37.5239 4.58703C37.5164 4.59404 37.5103 4.60253 37.5062 4.61197C37.5021 4.62141 37.5 4.6316 37.5 4.64189V13.516C37.5 13.5854 37.5345 13.6239 37.6036 13.6315C42.549 14.179 47.3562 16.4176 50.8374 19.9744C54.0772 23.2847 56.1982 27.4843 56.9182 32.0702C57.0098 32.6545 57.0559 33.1937 57.1196 33.8354C57.159 34.2305 57.1711 34.865 57.1559 35.7389C57.1034 38.7417 56.4586 41.5872 55.2213 44.2753C55.1947 44.333 55.2089 44.3781 55.2638 44.4105L62.3619 48.5863ZM15.0518 11.9782C15.0518 11.5702 14.9714 11.1663 14.8153 10.7893C14.6592 10.4124 14.4303 10.0699 14.1419 9.78145C13.8534 9.49297 13.5109 9.26413 13.134 9.108C12.757 8.95188 12.3531 8.87152 11.9451 8.87152C11.1211 8.87152 10.3309 9.19883 9.74832 9.78145C9.1657 10.3641 8.83839 11.1543 8.83839 11.9782C8.83839 12.3862 8.91874 12.7902 9.07487 13.1671C9.231 13.544 9.45983 13.8865 9.74832 14.175C10.3309 14.7576 11.1211 15.0849 11.9451 15.0849C12.3531 15.0849 12.757 15.0046 13.134 14.8484C13.5109 14.6923 13.8534 14.4635 14.1419 14.175C14.4303 13.8865 14.6592 13.544 14.8153 13.1671C14.9714 12.7902 15.0518 12.3862 15.0518 11.9782ZM18.506 39.9069C20.2075 46.1011 24.9681 50.7141 31.2037 52.2524C31.6119 52.3529 31.9268 52.3855 32.2143 52.4632C32.394 52.5119 32.5644 52.5093 32.74 52.5445C33.0217 52.601 33.2864 52.617 33.563 52.6512C33.6635 52.6636 33.7666 52.6481 33.8779 52.6704C33.9933 52.6932 34.0697 52.7054 34.1074 52.7071C35.8296 52.7869 37.3829 52.7087 39.0948 52.3197C47.1599 50.4856 52.6637 43.5409 52.7155 35.2733C52.7175 34.9442 52.7058 34.5992 52.6802 34.2384C52.3876 30.0839 50.7503 26.3194 47.9373 23.3023C45.2724 20.4447 41.3582 18.4977 37.4756 18.0523C33.7961 17.6302 30.0839 18.276 26.8301 20.1013C21.3895 23.1542 18.0994 28.6533 17.9 34.8843C17.8831 35.4109 17.8917 35.8914 17.9259 36.3258C17.9622 36.7857 17.9798 37.2141 18.0238 37.5C18.0697 37.8014 18.1005 38.0167 18.116 38.1459C18.1326 38.2842 18.1839 38.4173 18.2051 38.5592C18.2724 39.0088 18.389 39.4806 18.506 39.9069ZM70.3032 26.7902C70.3032 25.9662 69.9759 25.1761 69.3932 24.5934C68.8106 24.0108 68.0204 23.6835 67.1965 23.6835C66.3725 23.6835 65.5823 24.0108 64.9997 24.5934C64.4171 25.1761 64.0898 25.9662 64.0898 26.7902C64.0898 27.6141 64.4171 28.4043 64.9997 28.987C65.5823 29.5696 66.3725 29.8969 67.1965 29.8969C68.0204 29.8969 68.8106 29.5696 69.3932 28.987C69.9759 28.4043 70.3032 27.6141 70.3032 26.7902ZM29.8462 67.2311C29.8462 66.4117 29.5206 65.6259 28.9412 65.0465C28.3618 64.4671 27.576 64.1415 26.7566 64.1415C25.9371 64.1415 25.1513 64.4671 24.5719 65.0465C23.9925 65.6259 23.6669 66.4117 23.6669 67.2311C23.6669 67.6369 23.7469 68.0386 23.9021 68.4135C24.0574 68.7883 24.285 69.1289 24.5719 69.4158C24.8588 69.7027 25.1994 69.9303 25.5742 70.0856C25.9491 70.2408 26.3508 70.3208 26.7566 70.3208C27.1623 70.3208 27.564 70.2408 27.9389 70.0856C28.3137 69.9303 28.6543 69.7027 28.9412 69.4158C29.2281 69.1289 29.4557 68.7883 29.611 68.4135C29.7662 68.0386 29.8462 67.6369 29.8462 67.2311Z" fill="#424242"/>
<path d="M33.65 44.1257C30.1088 43.4321 27.1585 40.5445 26.5199 36.967C26.4929 36.8168 26.4422 36.6681 26.4344 36.5184C26.4168 36.1745 26.3505 35.814 26.351 35.4934C26.3552 33.0471 27.2238 30.8914 28.9284 29.1355C32.3168 25.646 37.7849 25.4673 41.3417 28.8206C43.0587 30.4397 44.1143 32.54 44.2215 34.9164C44.2288 35.0816 44.2733 35.3168 44.2547 35.5224C44.2106 36.0114 44.1697 36.5252 44.0791 36.982C43.14 41.7291 38.4981 45.0756 33.65 44.1257ZM39.7744 35.3323C39.7744 34.1457 39.303 33.0077 38.4639 32.1687C37.6249 31.3296 36.4869 30.8582 35.3003 30.8582C34.1137 30.8582 32.9756 31.3296 32.1366 32.1687C31.2975 33.0077 30.8262 34.1457 30.8262 35.3323C30.8262 36.5189 31.2975 37.6569 32.1366 38.496C32.9756 39.3351 34.1137 39.8064 35.3003 39.8064C36.4869 39.8064 37.6249 39.3351 38.4639 38.496C39.303 37.6569 39.7744 36.5189 39.7744 35.3323Z" fill="#424242"/>
<path d="M62.3619 48.5863L63.506 49.2612C63.4073 49.3807 63.2987 49.4888 63.1803 49.5854C63.1015 49.6497 62.9943 49.7073 62.8586 49.7584C61.9605 50.0972 61.3664 50.5856 60.6998 51.2595C60.5216 51.4397 60.3408 51.5407 60.1212 51.6407C60.1128 51.6445 60.1036 51.6462 60.0945 51.6456C60.0853 51.6451 60.0764 51.6423 60.0685 51.6376C60.0606 51.6329 60.0539 51.6263 60.0491 51.6185C60.0444 51.6106 60.0415 51.6017 60.0409 51.5925C60.0067 51.039 59.8842 50.4894 59.6732 49.9439C59.6704 49.9368 59.6691 49.9291 59.6695 49.9215C59.6699 49.9139 59.6719 49.9064 59.6753 49.8996C59.6788 49.8927 59.6837 49.8867 59.6896 49.8818C59.6956 49.877 59.7025 49.8734 59.71 49.8714C60.3332 49.7025 60.9137 49.4242 61.4513 49.0364C61.7253 48.8385 61.9335 48.7572 62.2453 48.7189C62.2527 48.718 62.2598 48.715 62.2658 48.7101C62.2718 48.7053 62.2765 48.6989 62.2795 48.6915C62.2975 48.6466 62.3249 48.6115 62.3619 48.5863Z" fill="#424242"/>
</g>
<path d="M84.2516 35.55C84.2516 32.15 85.0182 29.1 86.5516 26.4C88.0849 23.6667 90.1682 21.5333 92.8016 20C95.4682 18.4667 98.4182 17.7 101.652 17.7C105.452 17.7 108.768 18.6167 111.602 20.45C114.435 22.2833 116.502 24.8833 117.802 28.25H112.352C111.385 26.15 109.985 24.5333 108.152 23.4C106.352 22.2667 104.185 21.7 101.652 21.7C99.2182 21.7 97.0349 22.2667 95.1016 23.4C93.1682 24.5333 91.6516 26.15 90.5516 28.25C89.4516 30.3167 88.9016 32.75 88.9016 35.55C88.9016 38.3167 89.4516 40.75 90.5516 42.85C91.6516 44.9167 93.1682 46.5167 95.1016 47.65C97.0349 48.7833 99.2182 49.35 101.652 49.35C104.185 49.35 106.352 48.8 108.152 47.7C109.985 46.5667 111.385 44.95 112.352 42.85H117.802C116.502 46.1833 114.435 48.7667 111.602 50.6C108.768 52.4 105.452 53.3 101.652 53.3C98.4182 53.3 95.4682 52.55 92.8016 51.05C90.1682 49.5167 88.0849 47.4 86.5516 44.7C85.0182 42 84.2516 38.95 84.2516 35.55ZM136.525 53.45C133.958 53.45 131.625 52.8667 129.525 51.7C127.458 50.5333 125.825 48.8833 124.625 46.75C123.458 44.5833 122.875 42.0833 122.875 39.25C122.875 36.45 123.475 33.9833 124.675 31.85C125.908 29.6833 127.575 28.0333 129.675 26.9C131.775 25.7333 134.125 25.15 136.725 25.15C139.325 25.15 141.675 25.7333 143.775 26.9C145.875 28.0333 147.525 29.6667 148.725 31.8C149.958 33.9333 150.575 36.4167 150.575 39.25C150.575 42.0833 149.941 44.5833 148.675 46.75C147.441 48.8833 145.758 50.5333 143.625 51.7C141.491 52.8667 139.125 53.45 136.525 53.45ZM136.525 49.45C138.158 49.45 139.691 49.0667 141.125 48.3C142.558 47.5333 143.708 46.3833 144.575 44.85C145.475 43.3167 145.925 41.45 145.925 39.25C145.925 37.05 145.491 35.1833 144.625 33.65C143.758 32.1167 142.625 30.9833 141.225 30.25C139.825 29.4833 138.308 29.1 136.675 29.1C135.008 29.1 133.475 29.4833 132.075 30.25C130.708 30.9833 129.608 32.1167 128.775 33.65C127.941 35.1833 127.525 37.05 127.525 39.25C127.525 41.4833 127.925 43.3667 128.725 44.9C129.558 46.4333 130.658 47.5833 132.025 48.35C133.391 49.0833 134.891 49.45 136.525 49.45ZM189.507 25.1C191.64 25.1 193.54 25.55 195.207 26.45C196.874 27.3167 198.19 28.6333 199.157 30.4C200.124 32.1667 200.607 34.3167 200.607 36.85V53H196.107V37.5C196.107 34.7667 195.424 32.6833 194.057 31.25C192.724 29.7833 190.907 29.05 188.607 29.05C186.24 29.05 184.357 29.8167 182.957 31.35C181.557 32.85 180.857 35.0333 180.857 37.9V53H176.357V37.5C176.357 34.7667 175.674 32.6833 174.307 31.25C172.974 29.7833 171.157 29.05 168.857 29.05C166.49 29.05 164.607 29.8167 163.207 31.35C161.807 32.85 161.107 35.0333 161.107 37.9V53H156.557V25.6H161.107V29.55C162.007 28.1167 163.207 27.0167 164.707 26.25C166.24 25.4833 167.924 25.1 169.757 25.1C172.057 25.1 174.09 25.6167 175.857 26.65C177.624 27.6833 178.94 29.2 179.807 31.2C180.574 29.2667 181.84 27.7667 183.607 26.7C185.374 25.6333 187.34 25.1 189.507 25.1ZM233.071 38.25C233.071 39.1167 233.021 40.0333 232.921 41H211.021C211.187 43.7 212.104 45.8167 213.771 47.35C215.471 48.85 217.521 49.6 219.921 49.6C221.887 49.6 223.521 49.15 224.821 48.25C226.154 47.3167 227.087 46.0833 227.621 44.55H232.521C231.787 47.1833 230.321 49.3333 228.121 51C225.921 52.6333 223.187 53.45 219.921 53.45C217.321 53.45 214.987 52.8667 212.921 51.7C210.887 50.5333 209.287 48.8833 208.121 46.75C206.954 44.5833 206.371 42.0833 206.371 39.25C206.371 36.4167 206.937 33.9333 208.071 31.8C209.204 29.6667 210.787 28.0333 212.821 26.9C214.887 25.7333 217.254 25.15 219.921 25.15C222.521 25.15 224.821 25.7167 226.821 26.85C228.821 27.9833 230.354 29.55 231.421 31.55C232.521 33.5167 233.071 35.75 233.071 38.25ZM228.371 37.3C228.371 35.5667 227.987 34.0833 227.221 32.85C226.454 31.5833 225.404 30.6333 224.071 30C222.771 29.3333 221.321 29 219.721 29C217.421 29 215.454 29.7333 213.821 31.2C212.221 32.6667 211.304 34.7 211.071 37.3H228.371ZM243.627 30.05C244.427 28.4833 245.56 27.2667 247.027 26.4C248.527 25.5333 250.343 25.1 252.477 25.1V29.8H251.277C246.177 29.8 243.627 32.5667 243.627 38.1V53H239.077V25.6H243.627V30.05ZM272.029 53L265.529 42.8L259.279 53H254.529L263.379 39.4L254.529 25.6H259.679L266.179 35.75L272.379 25.6H277.129L268.329 39.15L277.179 53H272.029ZM284.005 21.15C283.138 21.15 282.405 20.85 281.805 20.25C281.205 19.65 280.905 18.9167 280.905 18.05C280.905 17.1833 281.205 16.45 281.805 15.85C282.405 15.25 283.138 14.95 284.005 14.95C284.838 14.95 285.538 15.25 286.105 15.85C286.705 16.45 287.005 17.1833 287.005 18.05C287.005 18.9167 286.705 19.65 286.105 20.25C285.538 20.85 284.838 21.15 284.005 21.15ZM286.205 25.6V53H281.655V25.6H286.205ZM292.259 39.2C292.259 36.4 292.826 33.95 293.959 31.85C295.093 29.7167 296.643 28.0667 298.609 26.9C300.609 25.7333 302.826 25.15 305.259 25.15C307.659 25.15 309.743 25.6667 311.509 26.7C313.276 27.7333 314.593 29.0333 315.459 30.6V25.6H320.059V53H315.459V47.9C314.559 49.5 313.209 50.8333 311.409 51.9C309.643 52.9333 307.576 53.45 305.209 53.45C302.776 53.45 300.576 52.85 298.609 51.65C296.643 50.45 295.093 48.7667 293.959 46.6C292.826 44.4333 292.259 41.9667 292.259 39.2ZM315.459 39.25C315.459 37.1833 315.043 35.3833 314.209 33.85C313.376 32.3167 312.243 31.15 310.809 30.35C309.409 29.5167 307.859 29.1 306.159 29.1C304.459 29.1 302.909 29.5 301.509 30.3C300.109 31.1 298.993 32.2667 298.159 33.8C297.326 35.3333 296.909 37.1333 296.909 39.2C296.909 41.3 297.326 43.1333 298.159 44.7C298.993 46.2333 300.109 47.4167 301.509 48.25C302.909 49.05 304.459 49.45 306.159 49.45C307.859 49.45 309.409 49.05 310.809 48.25C312.243 47.4167 313.376 46.2333 314.209 44.7C315.043 43.1333 315.459 41.3167 315.459 39.25Z" fill="#424242"/>
<defs>
<clipPath id="clip0_314_193">
<rect width="75" height="75" fill="white"/>
</clipPath>
</defs>
</svg>
